<svg id="Logo_du_Navire" data-name="Logo du Navire" xmlns="http://www.w3.org/2000/svg" xmlns:xlink="http://www.w3.org/1999/xlink" viewBox="0 0 1000 1000"><defs><style>.cls-1{fill:url(#Dégradé_sans_nom_2);}</style><linearGradient id="Dégradé_sans_nom_2" x1="116.82" y1="500" x2="882.19" y2="500" gradientUnits="userSpaceOnUse"><stop offset="0.27" stop-color="#cb9b51"/><stop offset="0.4" stop-color="#f6e27a"/><stop offset="0.5" stop-color="#f6f2c0"/><stop offset="0.6" stop-color="#f6e27a"/><stop offset="0.73" stop-color="#cb9b51"/></linearGradient></defs><title>Doré</title><g id="DEF"><path class="cls-1" d="M808.29,498.86l-75.8-16.19a234.57,234.57,0,0,0-214.13-215.3L502.2,191.71a1.71,1.71,0,0,0-3.34,0l-16.1,75.38A234.58,234.58,0,0,0,265,482.16L191.71,497.8a1.71,1.71,0,0,0,0,3.34l73,15.59A234.57,234.57,0,0,0,482.15,735l15.65,73.3a1.71,1.71,0,0,0,3.34,0l15.68-73.42a234.53,234.53,0,0,0,215.75-216.5l75.72-16.17A1.71,1.71,0,0,0,808.29,498.86Zm-81.94-17.5-46.3-9.88a182.94,182.94,0,0,0-149.92-149l-10.46-49C629.39,283.54,716.93,371.47,726.35,481.36Zm-178.58,22,43.29,43.29a4,4,0,0,0,3.72,1.1l75.46-16.11a173,173,0,0,1-140.1,140.78l16.59-77.68a4.07,4.07,0,0,0-1.1-3.72l-43.29-43.29a4,4,0,0,0-5.74,0l-43.29,43.29a4,4,0,0,0-1.1,3.72l16.53,77.4A173,173,0,0,1,330,530.67l75.23,16.06a4.07,4.07,0,0,0,3.72-1.1l43.29-43.29a4,4,0,0,0,0-5.74l-43.29-43.29a4,4,0,0,0-3.72-1.1L331.17,468A173,173,0,0,1,468.7,332.94l-15.43,72.28a4.07,4.07,0,0,0,1.1,3.72l43.29,43.29a4,4,0,0,0,5.74,0l43.29-43.29a4,4,0,0,0,1.1-3.72l-15.41-72.15A173,173,0,0,1,669.46,469.22l-74.68-16a4.07,4.07,0,0,0-3.72,1.1l-43.29,43.29A4,4,0,0,0,547.77,503.4Zm-56-230.74,1.29-6,7.44-34.86,7.47,35,1.29,6.07,10.31,48.27,2.21,10.33,15.53,72.74L500.53,441l-36.81-36.81,15.55-72.82,2.2-10.32Zm-10.34.55L471,322.41A183,183,0,0,0,320.56,470.29l-49.47,10.56C280.85,370,370.18,281.54,481.46,273.21Zm-217.2,233.2-32.49-6.94,32.58-7,6.07-1.29L319,480.85h0l10.37-2.21,74.79-16L441,499.47l-36.81,36.81-75.56-16.13h0L318.34,518l-48-10.26ZM270.83,518l48.7,10.4C330.76,607.28,392.6,670.06,471,682.72l9.85,46.15C368.76,720.17,279.1,630.24,270.83,518ZM507.77,729.38l-1.3,6-7,32.8-7-32.75-1.29-6.05h0l-9.67-45.32-2.2-10.31h0l-16.64-77.95L499.47,559l36.81,36.81L519.6,674l-2.2,10.29Zm10.36-.65L527.9,683A182.92,182.92,0,0,0,680.72,529.44l45.72-9.76C717.46,630.59,628.93,719.37,518.13,728.73ZM733.1,508l-6.05,1.29L682,519l-10.27,2.19-75.85,16.2L559,500.53l36.81-36.81,75.35,16.09L681.55,482,727,491.73l6,1.29,35.17,7.51Z"/></g></svg>